<svg width="100" height="73" viewBox="0 0 100 73" fill="none" xmlns="http://www.w3.org/2000/svg">
<path d="M21.7049 72.8284V72.2064V66.0595V65.4375V65.3961H24.6384C25.1221 65.3961 25.5368 65.479 25.8823 65.6448C26.2278 65.8107 26.4939 66.0526 26.6805 66.3705C26.8671 66.6883 26.9604 67.065 26.9604 67.5003C26.9604 67.9426 26.8671 68.3227 26.6805 68.6406C26.5008 68.9585 26.2347 69.2038 25.8823 69.3765C25.5368 69.5424 25.1221 69.6253 24.6384 69.6253H22.4719V72.2064V72.8284V72.8698H21.7049V72.8284ZM24.5969 68.9515C24.9217 68.9515 25.2016 68.8928 25.4366 68.7753C25.6784 68.6578 25.8616 68.492 25.986 68.2778C26.1104 68.0566 26.1726 67.7975 26.1726 67.5003C26.1726 67.0581 26.0309 66.7091 25.7476 66.4534C25.4711 66.1977 25.0876 66.0698 24.5969 66.0698H22.4719V68.9515H24.5969ZM30.4515 72.8284L30.7002 72.2064L33.4368 65.3961H34.1832L36.9197 72.2064L37.1892 72.8284V72.8698H36.3496L36.3289 72.8284L36.0905 72.2064L33.81 66.4015L31.5088 72.2064L31.26 72.8284L31.2393 72.8698H30.4515V72.8284ZM31.7679 70.154H35.8002V70.8381H31.7679V70.154ZM42.0539 72.8284V72.2064V66.0595V65.4375V65.3961H44.9874C45.4712 65.3961 45.8893 65.479 46.2417 65.6448C46.5941 65.8107 46.8636 66.0526 47.0502 66.3705C47.2368 66.6883 47.3301 67.0684 47.3301 67.5107C47.3301 67.9806 47.2126 68.378 46.9777 68.7028C46.7496 69.0276 46.4214 69.266 45.9929 69.418C46.2832 69.5217 46.5008 69.6772 46.646 69.8845C46.7911 70.0918 46.912 70.3958 47.0088 70.7967L47.3612 72.2064L47.5271 72.8284V72.8698H46.7185L46.2728 70.9729C46.1899 70.6481 46.0758 70.3889 45.9307 70.1954C45.7856 69.995 45.5817 69.8499 45.3191 69.7601C45.0565 69.6633 44.711 69.615 44.2825 69.615H42.821V72.2168V72.8284V72.8698H42.0539V72.8284ZM44.9356 68.9308C45.2673 68.9308 45.5541 68.8755 45.796 68.765C46.0378 68.6475 46.221 68.4851 46.3453 68.2778C46.4697 68.0635 46.5319 67.8078 46.5319 67.5107C46.5319 67.0615 46.3903 66.7091 46.1069 66.4534C45.8236 66.1977 45.4332 66.0698 44.9356 66.0698H42.821V68.9308H44.9356ZM54.1588 72.8284V72.2064V66.0698H52.604H51.7747H51.7332V65.3961H57.3412V66.0698H57.2997H56.4704H54.9259V72.2064V72.8284V72.8698H54.1588V72.8284ZM63.0483 66.5467L63.0586 72.2064V72.8284V72.8698H62.2916V72.8284V72.2064V66.0595V65.4375V65.3961H63.183L67.2672 71.7089L67.2568 66.0595V65.4375V65.3961H68.0239V65.4375V66.0595V72.8698H67.1324L63.0483 66.5467ZM73.5847 72.8284V72.2064V66.0595V65.4375V65.3961H78.3218V66.0698H78.2804H77.4511H74.3517V72.196H77.4511H78.2804H78.3218V72.8698H73.5847V72.8284ZM74.1548 68.5576H76.8292H77.4926H77.534V69.2314H77.4926H76.8292H74.1548V68.5576ZM83.4403 72.8284V72.2064V66.0595V65.4375V65.3961H86.3738C86.8576 65.3961 87.2756 65.479 87.6281 65.6448C87.9805 65.8107 88.25 66.0526 88.4366 66.3705C88.6232 66.6883 88.7165 67.0684 88.7165 67.5107C88.7165 67.9806 88.599 68.378 88.3641 68.7028C88.136 69.0276 87.8078 69.266 87.3793 69.418C87.6695 69.5217 87.8872 69.6772 88.0324 69.8845C88.1775 70.0918 88.2984 70.3958 88.3952 70.7967L88.7476 72.2064L88.9134 72.8284V72.8698H88.1049L87.6592 70.9729C87.5763 70.6481 87.4622 70.3889 87.3171 70.1954C87.172 69.995 86.9681 69.8499 86.7055 69.7601C86.4429 69.6633 86.0974 69.615 85.6689 69.615H84.2074V72.2168V72.8284V72.8698H83.4403V72.8284ZM86.322 68.9308C86.6537 68.9308 86.9405 68.8755 87.1824 68.765C87.4242 68.6475 87.6074 68.4851 87.7317 68.2778C87.8561 68.0635 87.9183 67.8078 87.9183 67.5107C87.9183 67.0615 87.7767 66.7091 87.4933 66.4534C87.21 66.1977 86.8196 66.0698 86.322 66.0698H84.2074V68.9308H86.322ZM96.3771 72.9735C95.9003 72.9735 95.4545 72.8802 95.0399 72.6936C94.6253 72.507 94.2866 72.2479 94.024 71.9162C93.7614 71.5845 93.606 71.2044 93.5576 70.7759L94.2521 70.5375H94.2936C94.3281 70.8761 94.4387 71.1802 94.6253 71.4497C94.8188 71.7123 95.0675 71.9196 95.3716 72.0717C95.6826 72.2237 96.0177 72.2997 96.3771 72.2997C96.7503 72.2997 97.0751 72.241 97.3515 72.1235C97.6348 72.006 97.8525 71.8436 98.0045 71.6363C98.1566 71.429 98.2326 71.1906 98.2326 70.9211C98.2326 70.5686 98.1289 70.2818 97.9216 70.0607C97.7143 69.8395 97.424 69.6702 97.0509 69.5528L95.5789 69.1174C95.0468 68.9654 94.6253 68.7442 94.3143 68.454C94.0102 68.1568 93.8582 67.7457 93.8582 67.2204C93.8582 66.8404 93.9618 66.5052 94.1692 66.215C94.3765 65.9247 94.6667 65.7001 95.0399 65.5412C95.42 65.3753 95.8519 65.2924 96.3356 65.2924C96.7917 65.2924 97.2029 65.3719 97.5692 65.5308C97.9354 65.6828 98.2291 65.8971 98.4503 66.1735C98.6783 66.443 98.82 66.7505 98.8753 67.0961L98.2015 67.3345H98.16C98.084 66.9129 97.8836 66.5812 97.5588 66.3394C97.2409 66.0906 96.8332 65.9662 96.3356 65.9662C95.9832 65.9662 95.6791 66.018 95.4234 66.1217C95.1747 66.2184 94.9846 66.3601 94.8533 66.5467C94.722 66.7333 94.6564 66.9509 94.6564 67.1997C94.6564 67.5107 94.7531 67.7595 94.9466 67.9461C95.1401 68.1326 95.42 68.2778 95.7862 68.3814L97.2893 68.8272C97.8283 68.9861 98.2533 69.228 98.5643 69.5528C98.8753 69.8776 99.0307 70.3267 99.0307 70.9003C99.0307 71.315 98.9202 71.6778 98.699 71.9887C98.4779 72.2997 98.1669 72.5416 97.7661 72.7143C97.3722 72.8871 96.9092 72.9735 96.3771 72.9735Z" fill="#EBE8DA" style="fill:#EBE8DA;fill:color(display-p3 0.9200 0.9117 0.8534);fill-opacity:1;"/>
<path d="M1.9207 2.19021C5.06861 2.20012 7.80364 2.57831 9.07166 4.02894C10.7022 5.89359 10.3797 10.4304 10.3797 11.9443V48.765C10.3797 49.2896 10.3633 49.8146 10.3301 50.3381C9.5585 62.5424 6.96834 65.3929 2.61494 68.1462C1.82234 68.6476 0.945099 69.078 0 69.4459L0.868852 71.5805C5.20129 70.5374 10.8978 67.4486 14.6062 62.0102C16.8601 58.7048 18.0385 52.7593 18.0385 48.2328L18.1372 0.0285645H1.92032V2.19059L1.9207 2.19021Z" fill="#EBE8DA" style="fill:#EBE8DA;fill:color(display-p3 0.9200 0.9117 0.8534);fill-opacity:1;"/>
<path d="M84.4947 26.3015C84.3434 26.2874 84.3289 26.0716 84.4768 26.0377C91.2191 24.4822 96.1542 19.4716 96.2789 13.2299C96.4802 3.14677 87.5218 0 80.3659 0H61.834V51.3022C55.0731 54.1638 43.2279 53.5687 42.2332 53.4906C38.6114 53.2062 37.9824 48.5775 37.9824 47.6576L37.9374 0.0282115H21.984V2.1422C25.1319 2.15211 27.6031 2.57834 28.8715 4.02859C30.502 5.89324 30.1795 8.99274 30.1795 10.5067V49.4955C30.2603 51.2832 29.857 54.2168 28.3088 55.3682C26.719 56.5504 22.4727 56.6411 21.9668 56.6785V58.8383H45.8856C45.8856 58.8383 57.1044 58.7315 61.8337 55.2744V58.8478L76.4985 58.8173C86.5069 58.7422 99.6598 54.9911 99.9941 42.1406C100.275 31.3541 90.9888 26.9104 84.4943 26.3019L84.4947 26.3015ZM69.4585 4.30918C69.4585 3.79107 69.7803 3.32329 70.2683 3.15058C70.8706 2.93747 71.8516 2.81509 73.433 2.69881C82.2347 2.05146 88.81 5.73655 88.1295 15.1071C87.3739 25.5078 78.9366 26.0434 69.4585 25.5509V4.30918ZM74.9823 55.9461C70.2397 55.4795 69.5767 52.8764 69.4585 50.0491L69.4852 28.263C81.5523 28.0453 89.8352 29.9939 91.1013 40.9481C92.3887 52.0849 83.9042 56.8238 74.9823 55.9461Z" fill="#EBE8DA" style="fill:#EBE8DA;fill:color(display-p3 0.9200 0.9117 0.8534);fill-opacity:1;"/>
</svg>
